<svg width="132" height="132" viewBox="0 0 132 132" fill="none" xmlns="http://www.w3.org/2000/svg">
<path d="M52.6435 95.2653L92.0295 65.7251L52.6435 36.1848V95.2653ZM65.7722 0.0800781C29.537 0.0800781 0.128754 29.489 0.128754 65.7251C0.128754 101.961 29.537 131.37 65.7722 131.37C102.007 131.37 131.416 101.961 131.416 65.7251C131.416 29.489 102.007 0.0800781 65.7722 0.0800781ZM65.7722 118.241C36.8234 118.241 13.2574 94.6745 13.2574 65.7251C13.2574 36.7756 36.8234 13.2091 65.7722 13.2091C94.7209 13.2091 118.287 36.7756 118.287 65.7251C118.287 94.6745 94.7209 118.241 65.7722 118.241Z" fill="white"/>
</svg>
