<svg width="24" height="24" viewBox="0 0 24 24" fill="none" xmlns="http://www.w3.org/2000/svg">
<path d="M14 14.884L20.933 21.817C21.0502 21.9342 21.2092 22.0001 21.375 22.0001C21.5408 22.0001 21.6998 21.9342 21.817 21.817C21.9342 21.6998 22.0001 21.5408 22.0001 21.375C22.0001 21.2092 21.9342 21.0502 21.817 20.933L3.067 2.183C3.00896 2.12496 2.94005 2.07891 2.86421 2.0475C2.78837 2.01609 2.70709 1.99992 2.625 1.99992C2.54291 1.99992 2.46163 2.01609 2.38579 2.0475C2.30995 2.07891 2.24104 2.12496 2.183 2.183C2.06577 2.30023 1.99992 2.45922 1.99992 2.625C1.99992 2.70709 2.01609 2.78837 2.0475 2.86421C2.07891 2.94005 2.12496 3.00896 2.183 3.067L6.616 7.5H4.5C3.80381 7.5 3.13613 7.77656 2.64384 8.26884C2.15156 8.76113 1.875 9.42881 1.875 10.125V13.875C1.875 15.325 3.05 16.5 4.5 16.5H6.851C7.43665 16.5 8.00166 16.7163 8.4375 17.1075L12.5405 20.7905C13.104 21.2965 14 20.897 14 20.14V14.884Z" fill="white"/>
<path d="M14 11.3485L9.0205 6.3685L12.5405 3.209C13.104 2.704 14 3.1035 14 3.8605V11.3485V11.3485Z" fill="white"/>
<path d="M18.093 15.441L17.168 14.516C17.5516 13.7328 17.7506 12.8721 17.75 12C17.75 10.761 17.3565 9.775 16.96 9.096C16.762 8.7565 16.565 8.4965 16.42 8.324C16.3522 8.24315 16.2811 8.16508 16.207 8.09L16.1985 8.082H16.199C16.0799 7.96853 16.0104 7.8127 16.0055 7.64831C16.0006 7.48391 16.0606 7.3242 16.1727 7.2038C16.2847 7.0834 16.4397 7.01202 16.604 7.00513C16.7684 6.99824 16.9288 7.0564 17.0505 7.167C17.1345 7.25 17.0505 7.167 17.0505 7.167L17.051 7.168L17.052 7.1685L17.0545 7.171L17.0615 7.1775L17.0825 7.1975C17.1854 7.30058 17.2838 7.40801 17.3775 7.5195C17.56 7.738 17.8005 8.056 18.04 8.4665C18.6596 9.52241 18.9906 10.7227 18.9999 11.9469C19.0092 13.1711 18.6965 14.3763 18.093 15.4415V15.441Z" fill="white"/>
<path d="M20.504 17.8525L19.5815 16.93C20.1855 15.762 20.755 14.1035 20.755 12C20.755 9.75 20.103 8.009 19.455 6.833C19.1988 6.36436 18.9023 5.91885 18.569 5.5015C18.4558 5.36106 18.3365 5.2256 18.2115 5.0955L18.1955 5.079L18.1925 5.0765C18.1331 5.0198 18.0855 4.95197 18.0524 4.87687C18.0193 4.80177 18.0012 4.72088 17.9993 4.63882C17.9955 4.47308 18.0577 4.31263 18.1723 4.19275C18.2868 4.07287 18.4442 4.00339 18.6099 3.99959C18.7757 3.9958 18.9361 4.05799 19.056 4.1725C19.279 4.407 19.0565 4.1725 19.0565 4.1725L19.057 4.1735L19.0585 4.1745L19.0615 4.1775L19.0705 4.1865L19.1005 4.216C19.1245 4.241 19.159 4.276 19.201 4.3215C19.3192 4.44933 19.433 4.58125 19.542 4.717C19.9212 5.19114 20.2585 5.69739 20.55 6.23C21.2795 7.5535 22.005 9.5 22.005 12C22.005 14.5 21.2795 16.4465 20.55 17.77C20.535 17.798 20.5195 17.825 20.504 17.8525V17.8525Z" fill="white"/>
</svg>
