<svg width="24" height="24" viewBox="0 0 24 24" fill="none" xmlns="http://www.w3.org/2000/svg">
<path d="M12.5405 3.209C13.104 2.704 14 3.1035 14 3.8605V20.1395C14 20.8965 13.104 21.2965 12.5405 20.7905L8.4375 17.1075C8.00166 16.7163 7.43665 16.5 6.851 16.5H4.5C3.80381 16.5 3.13613 16.2234 2.64384 15.7312C2.15156 15.2389 1.875 14.5712 1.875 13.875V10.125C1.875 8.675 3.05 7.5 4.5 7.5H6.851C7.43665 7.50003 8.00166 7.28368 8.4375 6.8925L12.5405 3.209ZM18.169 4.198C18.2823 4.07713 18.4389 4.00618 18.6045 4.00074C18.7701 3.99531 18.931 4.05582 19.052 4.169L19.0575 4.174L19.0525 4.169L19.053 4.1695L19.0545 4.171L19.0575 4.174L19.067 4.1825L19.097 4.212C19.1215 4.237 19.1555 4.2715 19.198 4.3165C19.283 4.4065 19.4 4.5365 19.539 4.7075C19.9188 5.17749 20.2562 5.6803 20.547 6.21C21.276 7.53 22 9.4765 22 12C22 14.5235 21.276 16.4705 20.547 17.79C20.2561 18.3197 19.9188 18.8225 19.539 19.2925C19.3991 19.4643 19.2515 19.6297 19.0965 19.788C19.0866 19.7979 19.0766 19.8077 19.0665 19.8175L19.0575 19.826L19.0545 19.829L19.053 19.8305C19.053 19.8305 19.383 19.5 19.052 19.831C18.9305 19.9404 18.771 19.9978 18.6077 19.9909C18.4443 19.984 18.2902 19.9135 18.1783 19.7943C18.0664 19.6751 18.0056 19.5169 18.009 19.3534C18.0124 19.19 18.0797 19.0344 18.1965 18.92L18.1975 18.919L18.199 18.9175L18.215 18.9015C18.2305 18.8865 18.2555 18.8615 18.2885 18.8265C18.354 18.7565 18.4515 18.6485 18.57 18.503C18.9027 18.0907 19.1982 17.6496 19.453 17.185C20.099 16.017 20.75 14.2765 20.75 12C20.75 9.7235 20.099 7.983 19.453 6.815C19.1982 6.3504 18.9028 5.90934 18.57 5.497C18.4576 5.35884 18.3392 5.22571 18.215 5.098C18.2097 5.0928 18.2044 5.08763 18.199 5.0825L18.1975 5.081L18.1965 5.08C18.0761 4.96655 18.0057 4.81001 18.0005 4.64468C17.9954 4.47936 18.0559 4.31873 18.169 4.198ZM16.167 7.1995C16.2229 7.13934 16.29 7.09077 16.3647 7.05658C16.4393 7.02238 16.52 7.00323 16.602 7.00021C16.6841 6.99719 16.7659 7.01037 16.8429 7.03899C16.9198 7.0676 16.9904 7.1111 17.0505 7.167L17.0825 7.198C17.0315 7.1505 17.0505 7.1675 17.0505 7.1675H17.051L17.052 7.1685L17.0545 7.171L17.0615 7.1775L17.0825 7.1975C17.1854 7.3006 17.2838 7.40803 17.3775 7.5195C17.56 7.738 17.8005 8.056 18.04 8.4665C18.6683 9.53809 18.9997 10.7578 19 12C19 13.511 18.5185 14.713 18.04 15.5335C17.8 15.944 17.56 16.262 17.377 16.48C17.2771 16.5989 17.1718 16.7132 17.0615 16.8225L17.0545 16.829L17.052 16.8315L17.0505 16.8325C17.0505 16.8325 17.25 16.6335 17.0545 16.829L17.0505 16.833C16.9292 16.946 16.768 17.0063 16.6023 17.0005C16.4366 16.9947 16.28 16.9233 16.167 16.802C16.054 16.6807 15.9937 16.5195 15.9995 16.3538C16.0053 16.1881 16.0767 16.0315 16.198 15.9185L16.199 15.9175L16.207 15.91L16.2495 15.8665C16.2885 15.8265 16.3475 15.7625 16.4195 15.6765C16.5645 15.5035 16.762 15.2435 16.96 14.904C17.477 14.0235 17.7497 13.021 17.75 12C17.75 10.761 17.3565 9.775 16.96 9.096C16.762 8.7565 16.565 8.4965 16.42 8.324C16.3522 8.24313 16.2812 8.16506 16.207 8.09L16.1985 8.082H16.199C16.0779 7.96914 16.0065 7.81282 16.0005 7.64737C15.9945 7.48191 16.0544 7.32084 16.167 7.1995V7.1995Z" fill="white"/>
</svg>
